<?xml version="1.0" encoding="iso-8859-1"?>
<!-- Generator: Adobe Illustrator 16.0.0, SVG Export Plug-In . SVG Version: 6.00 Build 0)  -->
<!DOCTYPE svg PUBLIC "-//W3C//DTD SVG 1.1//EN" "http://www.w3.org/Graphics/SVG/1.1/DTD/svg11.dtd">
<svg version="1.1" id="Layer_1" xmlns="http://www.w3.org/2000/svg" xmlns:xlink="http://www.w3.org/1999/xlink" x="0px" y="0px"
	 width="348px" height="139.519px" viewBox="0 0 348 139.519" style="enable-background:new 0 0 348 139.519;" xml:space="preserve"
	>
<g>
	<rect y="10.346" style="fill:#D57528;" width="115.058" height="4"/>
</g>
<g>
	<rect y="131.346" style="fill:#D57528;" width="125" height="4"/>
</g>
<g>
	<rect x="226" y="131.346" style="fill:#D57528;" width="122" height="4"/>
</g>
<g>
	<rect x="232" y="10.346" style="fill:#D57528;" width="115.058" height="4"/>
</g>
<g>
	<polygon style="fill:#D57528;" points="162.16,18.235 153.326,0.115 146.008,0.115 137.108,18.3 127.565,0.115 120.149,0.115
		132.466,22.813 141.139,22.813 149.489,5.693 157.872,22.813 166.514,22.813 172.39,11.983 168.87,5.496 	"/>
	<polygon style="fill:#D57528;" points="223.132,0 213.588,18.12 204.754,0 197.435,0 188.535,18.185 178.992,0 171.576,0
		171.672,0.176 183.893,22.698 192.566,22.698 200.916,5.578 209.299,22.698 217.94,22.698 230.257,0 	"/>
</g>
<g>
	<g>
		<path style="fill:#D57528;" d="M161.307,125.547v13.972h-3.933l-0.06-11.198l-7.385,11.198h-5.189l-7.465-11.259v11.259h-3.773
			v-13.972h6.407l7.505,11.617l7.466-11.617H161.307z"/>
	</g>
	<g>
		<path style="fill:#D57528;" d="M184.377,130.977v2.974h-14.53v2.394h14.91v3.175h-18.803v-13.972h18.803v3.174h-14.91v2.256
			H184.377z"/>
	</g>
	<g>
		<path style="fill:#D57528;" d="M216.904,125.547v13.972h-3.932l-0.061-11.198l-7.385,11.198h-5.189l-7.465-11.259v11.259H189.1
			v-13.972h6.408l7.504,11.617l7.465-11.617H216.904z"/>
	</g>
</g>
<g>
	<path style="fill:#116C9A;" d="M9.804,100.363l-7.299-59.75h8.147l4.38,42.572L20.6,40.613h7.333l5.602,42.572l3.87-42.572h8.182
		l-6.857,59.75h-9.064l-5.296-39.721l-5.5,39.721H9.804z"/>
	<path style="fill:#116C9A;" d="M52.07,100.363v-59.75H72.1v7.842H61.168v17.382h10.389v7.673H61.168v19.011h11.34v7.843H52.07z"/>
	<path style="fill:#116C9A;" d="M105.336,55.958c0,6.428-1.743,10.377-5.229,11.848c4.255,1.426,6.383,6.122,6.383,14.089v1.527
		c-0.046,5.998-1.093,10.32-3.141,12.969c-2.049,2.648-5.393,3.973-10.031,3.973H80.111v-59.75h12.935
		c4.459,0,7.616,1.035,9.473,3.106c1.855,2.071,2.795,5.54,2.817,10.406V55.958z M89.21,64.784h3.361
		c1.562,0,2.585-0.498,3.072-1.494c0.486-0.996,0.729-3.044,0.729-6.145v-3.599c-0.022-2.309-0.339-3.854-0.95-4.634
		s-1.664-1.171-3.157-1.171H89.21V64.784z M89.21,93.301h3.226c1.811,0,3.077-0.621,3.802-1.867
		c0.725-1.244,1.087-3.473,1.087-6.688v-4.82c0-3.033-0.295-5.178-0.883-6.434c-0.589-1.256-1.721-1.885-3.396-1.885H89.21V93.301z"
		/>
	<path style="fill:#116C9A;" d="M118.44,100.363l-7.299-59.75h8.147l4.38,42.572l5.567-42.572h7.333l5.602,42.572l3.87-42.572h8.182
		l-6.857,59.75h-9.064l-5.296-39.721l-5.5,39.721H118.44z"/>
	<path style="fill:#116C9A;" d="M183.113,96.73c-2.083,2.875-5.415,4.312-9.998,4.312s-7.944-1.442-10.083-4.329
		c-2.139-2.885-3.208-7.236-3.208-13.053V56.331c0-10.954,4.47-16.431,13.41-16.431c4.617,0,7.938,1.392,9.964,4.175
		c2.025,2.784,3.038,6.87,3.038,12.256V83.66C186.236,89.499,185.195,93.856,183.113,96.73z M169.788,91.095
		c0.531,1.381,1.624,2.071,3.276,2.071c1.651,0,2.738-0.707,3.259-2.122s0.781-3.842,0.781-7.282V55.924
		c0-2.829-0.267-4.894-0.798-6.196c-0.532-1.301-1.573-1.952-3.123-1.952c-1.551,0-2.638,0.651-3.26,1.952
		c-0.622,1.302-0.934,3.355-0.934,6.162v27.872C168.99,87.27,169.256,89.715,169.788,91.095z"/>
	<path style="fill:#116C9A;" d="M206.504,72.287l-2.92-0.136v28.212h-9.098v-59.75h15.039c3.123,0,5.454,0.628,6.993,1.884
		c1.539,1.256,2.552,3.011,3.039,5.262c0.486,2.252,0.729,5.194,0.729,8.827c0,3.633-0.385,6.399-1.154,8.301
		c-0.77,1.901-2.195,3.18-4.277,3.836c2.06,0.361,3.497,1.754,4.312,4.176s1.223,7.463,1.223,15.124s0.112,11.774,0.339,12.341
		h-9.098c-0.227-0.453-0.34-7.594-0.34-21.422c0-2.648-0.317-4.408-0.951-5.279S208.428,72.332,206.504,72.287z M203.618,65.09
		h3.633c1.154,0,2.008-0.26,2.563-0.781c0.554-0.521,0.938-1.414,1.154-2.682c0.215-1.267,0.322-3.202,0.322-5.805v-0.374
		c0-3.236-0.271-5.352-0.814-6.348c-0.544-0.996-1.8-1.494-3.769-1.494h-3.09V65.09z"/>
	<path style="fill:#116C9A;" d="M228.774,100.363v-59.75h9.098v27.499l9.099-27.499h9.404l-9.913,29.467l10.693,30.283h-9.607
		l-9.607-27.906v27.906H228.774z"/>
	<path style="fill:#116C9A;" d="M261.705,100.363v-59.75h20.029v7.842h-10.932v17.382h10.389v7.673h-10.389v19.011h11.34v7.843
		H261.705z"/>
	<path style="fill:#116C9A;" d="M301.425,72.287l-2.92-0.136v28.212h-9.098v-59.75h15.039c3.123,0,5.454,0.628,6.993,1.884
		c1.539,1.256,2.552,3.011,3.039,5.262c0.486,2.252,0.729,5.194,0.729,8.827c0,3.633-0.385,6.399-1.154,8.301
		c-0.77,1.901-2.195,3.18-4.277,3.836c2.06,0.361,3.497,1.754,4.312,4.176s1.223,7.463,1.223,15.124s0.112,11.774,0.339,12.341
		h-9.098c-0.227-0.453-0.34-7.594-0.34-21.422c0-2.648-0.317-4.408-0.951-5.279S303.349,72.332,301.425,72.287z M298.539,65.09
		h3.633c1.154,0,2.008-0.26,2.563-0.781c0.554-0.521,0.938-1.414,1.154-2.682c0.215-1.267,0.322-3.202,0.322-5.805v-0.374
		c0-3.236-0.271-5.352-0.814-6.348c-0.544-0.996-1.8-1.494-3.769-1.494h-3.09V65.09z"/>
	<path style="fill:#116C9A;" d="M322.508,83.559v-5.33h8.623v6.008c0,3.328,0.283,5.665,0.849,7.012
		c0.565,1.346,1.63,2.02,3.191,2.02s2.597-0.555,3.106-1.664c0.509-1.108,0.764-2.919,0.764-5.432c0-2.512-0.453-4.701-1.358-6.568
		s-2.342-3.82-4.312-5.857l-4.413-4.549c-2.06-2.149-3.661-4.379-4.804-6.688s-1.714-4.979-1.714-8.012c0-4.934,0.95-8.6,2.852-11
		c1.9-2.398,5.171-3.598,9.811-3.598s7.78,1.397,9.421,4.192c1.641,2.795,2.462,6.875,2.462,12.239v3.7H338.6v-4.277
		c0-2.897-0.249-4.974-0.747-6.229c-0.498-1.256-1.454-1.884-2.868-1.884c-1.415,0-2.434,0.475-3.056,1.426
		c-0.623,0.951-0.934,2.376-0.934,4.277c0,1.901,0.316,3.418,0.95,4.549c0.634,1.132,1.777,2.58,3.43,4.346l4.922,5.33
		c2.467,2.67,4.329,5.375,5.585,8.114s1.884,5.727,1.884,8.963c0,5.59-0.939,9.721-2.817,12.391
		c-1.879,2.672-5.166,4.007-9.862,4.007s-7.967-1.488-9.812-4.464C323.43,93.602,322.508,89.262,322.508,83.559z"/>
</g>
</svg>
